<?xml version="1.0" encoding="UTF-8"?>
<svg width="512px" height="512px" viewBox="0 0 512 512" version="1.1" xmlns="http://www.w3.org/2000/svg" xmlns:xlink="http://www.w3.org/1999/xlink">
    <title>copy</title>
    <g id="copy" stroke="none" fill="none" fill-rule="evenodd" stroke-width="1">
        <g id="Layer_1" fill="#012D3D">
            <path d="M288,405.333333 L117.333333,405.333333 C52.561166,405.262788 0.0705451715,352.772167 0,288 L0,117.333333 C0.0705451715,52.561166 52.561166,0.0705451715 117.333333,0 L288,0 C352.772167,0.0705451715 405.262788,52.561166 405.333333,117.333333 L405.333333,288 C405.262788,352.772167 352.772167,405.262788 288,405.333333 Z M117.333333,64 C87.8781467,64 64,87.8781467 64,117.333333 L64,288 C64,317.455187 87.8781467,341.333333 117.333333,341.333333 L288,341.333333 C317.455187,341.333333 341.333333,317.455187 341.333333,288 L341.333333,117.333333 C341.333333,87.8781467 317.455187,64 288,64 L117.333333,64 Z M512,394.666667 L512,149.333333 C512,131.660221 497.673112,117.333333 480,117.333333 C462.326888,117.333333 448,131.660221 448,149.333333 L448,394.666667 C448,424.121853 424.121853,448 394.666667,448 L149.333333,448 C131.660221,448 117.333333,462.326888 117.333333,480 C117.333333,497.673112 131.660221,512 149.333333,512 L394.666667,512 C459.438834,511.929455 511.929455,459.438834 512,394.666667 L512,394.666667 Z" id="Shape" fill-rule="nonzero"></path>
        </g>
    </g>
</svg>