<?xml version="1.0" encoding="UTF-8"?>
<svg width="2336px" height="525px" viewBox="0 0 2336 525" version="1.1" xmlns="http://www.w3.org/2000/svg" xmlns:xlink="http://www.w3.org/1999/xlink">
    <title>postieslogofinal</title>
    <g id="postieslogofinal" stroke="none" fill="none" fill-rule="evenodd" stroke-width="1">
        <g id="Group">
            <g id="posties" transform="translate(587, 0)" fill="#FFFFFF" fill-rule="nonzero">
                <path d="M0,94.5 L54.5,94.5 L54.5,129.5 C62.8333333,116.5 74.5,106.583333 89.5,99.75 C104.5,92.9166667 121.333333,89.5 140,89.5 C166.666667,89.5 189.583333,95 208.75,106 C227.916667,117 242.5,132.416667 252.5,152.25 C262.5,172.083333 267.5,195.166667 267.5,221.5 C267.5,248.833333 262.166667,272.583333 251.5,292.75 C240.833333,312.916667 225.5,328.416667 205.5,339.25 C185.5,350.083333 162,355.5 135,355.5 C99.6666667,355.5 72.8333333,344.5 54.5,322.5 L54.5,432.5 L0,432.5 L0,94.5 Z M131.5,305 C156.833333,305 176.333333,298.083333 190,284.25 C203.666667,270.416667 210.5,249.5 210.5,221.5 C210.5,194.166667 203.666667,173.75 190,160.25 C176.333333,146.75 158,140 135,140 C109.666667,140 89.8333333,146.583333 75.5,159.75 C61.1666667,172.916667 54,190.166667 54,211.5 L54,231 C54,254.666667 60.4166667,272.916667 73.25,285.75 C86.0833333,298.583333 105.5,305 131.5,305 Z" id="Shape"></path>
                <path d="M438.5,355.5 C395.5,355.5 361.666667,343.75 337,320.25 C312.333333,296.75 300,264.333333 300,223 C300,195.666667 305.833333,171.916667 317.5,151.75 C329.166667,131.583333 345.5,116.166667 366.5,105.5 C387.5,94.8333333 412,89.5 440,89.5 C482.333333,89.5 515.916667,101.25 540.75,124.75 C565.583333,148.25 578,180.666667 578,222 C578,249.333333 572.333333,273 561,293 C549.666667,313 533.5,328.416667 512.5,339.25 C491.5,350.083333 466.833333,355.5 438.5,355.5 Z M439,305 C466,305 486.75,297.583333 501.25,282.75 C515.75,267.916667 523,247.666667 523,222 C523,196.666667 515.75,176.666667 501.25,162 C486.75,147.333333 466,140 439,140 C412.333333,140 391.75,147.333333 377.25,162 C362.75,176.666667 355.5,196.833333 355.5,222.5 C355.5,248.166667 362.666667,268.333333 377,283 C391.333333,297.666667 412,305 439,305 Z" id="Shape"></path>
                <path d="M733,355.5 C698.333333,355.166667 670.25,348.166667 648.75,334.5 C627.25,320.833333 616.5,299.333333 616.5,270 L671.5,270 C671.5,283.333333 677.416667,292.5 689.25,297.5 C701.083333,302.5 716,305.166667 734,305.5 C756.666667,305.5 773,303.083333 783,298.25 C793,293.416667 798,285.666667 798,275 C798,266 794.166667,258.916667 786.5,253.75 C778.833333,248.583333 766,244.833333 748,242.5 L716.5,238.5 C692.833333,235.5 673.916667,231.416667 659.75,226.25 C645.583333,221.083333 634.916667,213.666667 627.75,204 C620.583333,194.333333 617,181.333333 617,165 C617,141.333333 627.416667,122.833333 648.25,109.5 C669.083333,96.1666667 696.5,89.5 730.5,89.5 C762.833333,89.5 789.833333,96.1666667 811.5,109.5 C833.166667,122.833333 844.666667,142.833333 846,169.5 L792.5,169.5 C792.166667,149.166667 771.5,139 730.5,139 C709.5,139 694.166667,141.416667 684.5,146.25 C674.833333,151.083333 670,158.166667 670,167.5 C670,175.166667 673.583333,181.166667 680.75,185.5 C687.916667,189.833333 700.333333,193.166667 718,195.5 L753.5,200 C778.166667,203 797.75,207.416667 812.25,213.25 C826.75,219.083333 837.25,227 843.75,237 C850.25,247 853.5,260.166667 853.5,276.5 C853.5,300.833333 843.166667,320 822.5,334 C801.833333,348 772,355.166667 733,355.5 Z" id="Path"></path>
                <path d="M1003,354 C973.666667,354 952.833333,346.583333 940.5,331.75 C928.166667,316.916667 921.5,295.5 920.5,267.5 L920.5,149.5 L878.5,149.5 L878.5,100 L920.5,100 L920.5,9.5 L975,9.5 L975,100 L1055,100 L1055,149.5 L975,149.5 L975,271 C975,283 978.333333,291.416667 985,296.25 C991.666667,301.083333 1000.83333,303.5 1012.5,303.5 C1022.83333,303.5 1036,301.666667 1052,298 L1065,342 C1051.66667,346.333333 1040.41667,349.416667 1031.25,351.25 C1022.08333,353.083333 1012.66667,354 1003,354 Z" id="Path"></path>
                <path d="M1105.5,99 L1160,99 L1160,350 L1105.5,350 L1105.5,99 Z M1105,0 L1160.5,0 L1160.5,62 L1105,62 L1105,0 Z" id="Shape"></path>
                <path d="M1335.5,355.5 C1293.16667,355.5 1259.75,343.833333 1235.25,320.5 C1210.75,297.166667 1198.5,264.833333 1198.5,223.5 C1198.5,181.5 1211.08333,148.666667 1236.25,125 C1261.41667,101.333333 1295.5,89.5 1338.5,89.5 C1380.5,89.5 1413.91667,101.25 1438.75,124.75 C1463.58333,148.25 1476,180.833333 1476,222.5 L1476,235 L1254.5,235 C1256.16667,256 1264,272.916667 1278,285.75 C1292,298.583333 1311.66667,305 1337,305 C1356.66667,305 1372.83333,301 1385.5,293 C1398.16667,285 1407,273.333333 1412,258 L1472.5,258 C1464.83333,289 1449.33333,313 1426,330 C1402.66667,347 1372.5,355.5 1335.5,355.5 Z M1417,198.5 C1413.66667,180.5 1405.33333,166.25 1392,155.75 C1378.66667,145.25 1360.33333,140 1337,140 C1317.66667,140 1300.83333,144.833333 1286.5,154.5 C1272.16667,164.166667 1262.5,178.833333 1257.5,198.5 L1417,198.5 Z" id="Shape"></path>
                <path d="M1628.5,355.5 C1593.83333,355.166667 1565.75,348.166667 1544.25,334.5 C1522.75,320.833333 1512,299.333333 1512,270 L1567,270 C1567,283.333333 1572.91667,292.5 1584.75,297.5 C1596.58333,302.5 1611.5,305.166667 1629.5,305.5 C1652.16667,305.5 1668.5,303.083333 1678.5,298.25 C1688.5,293.416667 1693.5,285.666667 1693.5,275 C1693.5,266 1689.66667,258.916667 1682,253.75 C1674.33333,248.583333 1661.5,244.833333 1643.5,242.5 L1612,238.5 C1588.33333,235.5 1569.41667,231.416667 1555.25,226.25 C1541.08333,221.083333 1530.41667,213.666667 1523.25,204 C1516.08333,194.333333 1512.5,181.333333 1512.5,165 C1512.5,141.333333 1522.91667,122.833333 1543.75,109.5 C1564.58333,96.1666667 1592,89.5 1626,89.5 C1658.33333,89.5 1685.33333,96.1666667 1707,109.5 C1728.66667,122.833333 1740.16667,142.833333 1741.5,169.5 L1688,169.5 C1687.66667,149.166667 1667,139 1626,139 C1605,139 1589.66667,141.416667 1580,146.25 C1570.33333,151.083333 1565.5,158.166667 1565.5,167.5 C1565.5,175.166667 1569.08333,181.166667 1576.25,185.5 C1583.41667,189.833333 1595.83333,193.166667 1613.5,195.5 L1649,200 C1673.66667,203 1693.25,207.416667 1707.75,213.25 C1722.25,219.083333 1732.75,227 1739.25,237 C1745.75,247 1749,260.166667 1749,276.5 C1749,300.833333 1738.66667,320 1718,334 C1697.33333,348 1667.5,355.166667 1628.5,355.5 Z" id="Path"></path>
            </g>
            <g id="Asset-1" transform="translate(0.65, 0.22)" fill="#3AB8DF" fill-rule="nonzero">
                <path d="M382.46774,-0.22 L51.2421766,-0.22 L51.2421766,-0.22 C23.1384298,-0.22 0.35,22.6194801 0.35,50.7861844 L0.35,511.0842 C0.35,523.040638 15.3637871,528.347985 22.8409307,519.025342 L308.380551,103.909344 C309.778797,101.87188 312.089373,100.65934 314.558616,100.65934 C320.201182,100.65934 323.830671,106.672345 321.202762,111.681526 L188.954503,364.456328 C186.336511,369.465509 189.956083,375.478514 195.598649,375.478514 L382.457823,375.478514 C410.56157,375.478514 433.35,352.639034 433.35,324.47233 L433.35,50.7861844 C433.35,22.6194801 410.56157,-0.22 382.457823,-0.22 L382.46774,-0.22 Z" id="Path"></path>
            </g>
        </g>
    </g>
</svg>